# xmcd
#
# Track frame offsets:
#	150
#	16940
#	39385
#	67567
#	87745
#	108780
#	132112
#	152930
#	171287
#	203920
#	220090
#	252773
#
# Disc length: 4346 seconds
#
# Revision: 0
# Processed by: cddbd v1.5.1PL0 Copyright (c) Steve Scherf et al.
# Submitted via: EasyCDDAExtractor 7.1.3.1
#
DISCID=9810f80c
DTITLE=Luther 'Guitar Junior' Johnson - Got To Find A Way
DYEAR=1999
DGENRE=Blues
TTITLE0=On Your Way Fishin'
TTITLE1=Got To Find A Way
TTITLE2=Luther's Blues
TTITLE3=Home Alone
TTITLE4=You Ought To Be Ashamed
TTITLE5=So Mean To Me
TTITLE6=I Pity The Fool
TTITLE7=Just Like Mama Said
TTITLE8=I Gotta Move Out Of My Neighborhood
TTITLE9=I Got The Blues
TTITLE10=Talkin' On My Phone
TTITLE11=Datatrack
EXTD=
EXTT0=
EXTT1=
EXTT2=
EXTT3=
EXTT4=
EXTT5=
EXTT6=
EXTT7=
EXTT8=
EXTT9=
EXTT10=
EXTT11=
PLAYORDER=
